<?xml version="1.0" standalone="no"?>
<!DOCTYPE svg PUBLIC "-//W3C//DTD SVG 20010904//EN"
 "http://www.w3.org/TR/2001/REC-SVG-20010904/DTD/svg10.dtd">
<svg version="1.0" xmlns="http://www.w3.org/2000/svg"
 width="512.000000pt" height="512.000000pt" viewBox="0 0 512.000000 512.000000"
 preserveAspectRatio="xMidYMid meet">

<g transform="translate(0.000000,512.000000) scale(0.100000,-0.100000)"
fill="#000000" stroke="none">
<path d="M1175 4795 c-511 -76 -855 -280 -1048 -621 -188 -333 -162 -757 70
-1122 105 -165 323 -382 501 -497 318 -204 684 -274 970 -184 149 47 248 107
375 228 477 454 661 1275 391 1735 -148 252 -447 421 -824 466 -114 13 -325
11 -435 -5z m675 -966 c92 -42 134 -107 135 -210 0 -56 -4 -73 -30 -115 -62
-99 -180 -138 -283 -94 -145 63 -189 246 -86 360 71 78 172 101 264 59z"/>
<path d="M4585 3831 c-84 -39 -135 -120 -135 -213 1 -69 27 -125 79 -170 128
-109 320 -51 367 110 31 107 -17 216 -117 266 -64 31 -135 34 -194 7z"/>
<path d="M3035 3254 c-273 -61 -479 -249 -541 -494 -74 -295 178 -759 482
-886 19 -8 34 -18 34 -22 0 -4 -13 -42 -29 -84 -122 -326 -404 -582 -781 -709
-179 -60 -336 -86 -581 -98 -186 -10 -222 -20 -267 -79 -20 -27 -27 -48 -30
-96 -4 -75 23 -129 83 -164 39 -23 44 -23 225 -18 442 13 799 117 1115 324
131 86 326 281 411 409 l61 92 56 -82 c289 -426 731 -665 1352 -732 170 -19
345 -19 389 -1 46 19 94 81 102 132 8 59 -3 100 -38 140 -51 58 -74 64 -256
74 -322 17 -533 64 -751 166 -292 137 -500 352 -612 634 l-38 95 76 39 c144
76 304 255 383 431 114 255 94 496 -58 677 -91 109 -244 205 -387 244 -86 24
-310 28 -400 8z"/>
<path d="M3020 658 c-52 -15 -90 -46 -111 -92 -33 -72 -22 -145 29 -200 48
-51 74 -56 279 -56 162 0 194 3 229 19 75 34 115 123 93 204 -14 52 -72 111
-124 126 -49 13 -347 13 -395 -1z"/>
</g>
</svg>
